<?xml version="1.0" encoding="iso-8859-1"?>
<!-- Generator: Adobe Illustrator 16.0.0, SVG Export Plug-In . SVG Version: 6.00 Build 0)  -->
<!DOCTYPE svg PUBLIC "-//W3C//DTD SVG 1.1//EN" "http://www.w3.org/Graphics/SVG/1.1/DTD/svg11.dtd">
<svg version="1.1" id="&#x421;&#x43B;&#x43E;&#x439;_1"
	 xmlns="http://www.w3.org/2000/svg" xmlns:xlink="http://www.w3.org/1999/xlink" x="0px" y="0px" width="26.994px"
	 height="26.888px" viewBox="0 0 26.994 26.888" style="enable-background:new 0 0 26.994 26.888;" xml:space="preserve">
<path style="fill-rule:evenodd;clip-rule:evenodd;fill:white;" d="M14.957,2.005c0,1.094-0.912,2.005-2.006,2.005
	s-2.006-0.911-2.006-2.005C10.944,0.911,11.856,0,12.95,0S14.957,0.911,14.957,2.005L14.957,2.005z M12.95,5.651
	c-1.186,0-2.098,0.912-2.098,2.096c0,1.185,0.913,2.096,2.098,2.096c1.185,0,2.097-0.911,2.097-2.096
	C15.047,6.563,14.135,5.651,12.95,5.651L12.95,5.651z M12.95,11.302c-1.186,0-2.189,1.003-2.189,2.187
	c0,1.185,1.003,2.188,2.189,2.188c1.186,0,2.189-1.003,2.189-2.188C15.139,12.305,14.135,11.302,12.95,11.302L12.95,11.302z
	 M12.95,17.043c-1.186,0-2.098,0.911-2.098,2.097c0,1.185,0.913,2.096,2.098,2.096c1.185,0,2.097-0.911,2.097-2.096
	C15.047,18.046,14.135,17.043,12.95,17.043L12.95,17.043z M12.95,22.877c-1.094,0-2.006,0.911-2.006,2.005s0.912,2.006,2.006,2.006
	s2.006-0.912,2.006-2.006S14.044,22.877,12.95,22.877L12.95,22.877z M18.513,5.377c-1.277,0-2.371,1.094-2.371,2.37
	s1.094,2.37,2.371,2.37s2.371-1.094,2.371-2.37S19.79,5.377,18.513,5.377L18.513,5.377z M18.513,11.028
	c-1.368,0-2.463,1.094-2.463,2.46c0,1.367,1.095,2.461,2.463,2.461c1.368,0,2.463-1.094,2.463-2.461
	C20.976,12.122,19.881,11.028,18.513,11.028L18.513,11.028z M18.513,16.77c-1.277,0-2.371,1.094-2.371,2.37s1.094,2.37,2.371,2.37
	s2.371-1.094,2.371-2.37S19.79,16.77,18.513,16.77L18.513,16.77z M24.258,10.755c-1.459,0-2.736,1.185-2.736,2.734
	c0,1.458,1.186,2.734,2.736,2.734c1.551,0,2.736-1.185,2.736-2.734C26.903,11.939,25.718,10.755,24.258,10.755L24.258,10.755z
	 M7.295,5.924c-1.003,0-1.823,0.82-1.823,1.823c0,1.003,0.82,1.823,1.823,1.823c1.004,0,1.825-0.82,1.825-1.823
	C9.12,6.745,8.299,5.924,7.295,5.924L7.295,5.924z M7.295,11.575c-1.094,0-1.915,0.82-1.915,1.914c0,1.095,0.82,1.914,1.915,1.914
	c1.095,0,1.916-0.819,1.916-1.914C9.211,12.396,8.39,11.575,7.295,11.575L7.295,11.575z M7.295,17.317
	c-1.003,0-1.823,0.82-1.823,1.823c0,1.002,0.82,1.823,1.823,1.823c1.004,0,1.825-0.821,1.825-1.823
	C9.12,18.137,8.299,17.317,7.295,17.317L7.295,17.317z M1.642,11.848C0.73,11.848,0,12.578,0,13.489c0,0.912,0.73,1.641,1.642,1.641
	c0.912,0,1.642-0.729,1.642-1.641C3.283,12.578,2.554,11.848,1.642,11.848z"/>
</svg>
