<?xml version="1.0" encoding="iso-8859-1"?>
<!-- Generator: Adobe Illustrator 16.0.0, SVG Export Plug-In . SVG Version: 6.00 Build 0)  -->
<!DOCTYPE svg PUBLIC "-//W3C//DTD SVG 1.1//EN" "http://www.w3.org/Graphics/SVG/1.1/DTD/svg11.dtd">
<svg version="1.1" id="&#x421;&#x43B;&#x43E;&#x439;_1"
	 xmlns="http://www.w3.org/2000/svg" xmlns:xlink="http://www.w3.org/1999/xlink" x="0px" y="0px" width="19.247px"
	 height="17.924px" viewBox="0 0 19.247 17.924" style="enable-background:new 0 0 19.247 17.924;" xml:space="preserve">
<path style="fill:white;" d="M0,1.409c0.019-0.07,0.037-0.139,0.053-0.21C0.2,0.528,0.733,0.067,1.415,0.007
	C2.37-0.077,2.983,0.552,3.088,1.27c0.149,1.028-0.5,1.756-1.421,1.81C1.124,3.112,0.662,2.958,0.32,2.517
	C0.158,2.308,0.066,2.069,0.032,1.807C0.027,1.772,0.011,1.739,0,1.705C0,1.606,0,1.507,0,1.409z M5.834,17.75
	c0,0.171,0,0.171,0.175,0.171c0.729,0,1.457,0,2.184,0c0.189,0,0.189,0,0.189-0.184c0-2.638,0-5.276,0-7.914
	c0-0.187,0-0.187,0.19-0.187c2.649,0,5.297,0,7.945,0c0.029,0,0.058,0.002,0.086,0c0.075-0.005,0.105,0.032,0.104,0.103
	c-0.001,0.045,0,0.091,0,0.136c0,2.629,0.001,5.26-0.002,7.89c0,0.123,0.031,0.16,0.158,0.159c0.741-0.006,1.481-0.005,2.221,0
	c0.122,0.001,0.162-0.027,0.162-0.156c-0.003-5.859-0.003-11.72,0-17.58c0-0.125-0.035-0.161-0.16-0.16
	c-0.728,0.005-1.456,0.003-2.184,0.003c-0.195,0-0.195,0-0.195,0.193c0,2.339,0,4.677,0,7.015c0,0.171,0,0.171-0.167,0.171
	c-2.661,0-5.321,0-7.982,0c-0.177,0-0.177,0-0.177-0.183c0-2.347-0.001-4.693,0.002-7.04c0-0.124-0.031-0.161-0.157-0.16
	C7.483,0.034,6.738,0.031,5.994,0.031c-0.159,0-0.159,0-0.159,0.164c0,2.926,0,5.852,0,8.778C5.834,11.898,5.834,14.824,5.834,17.75
	z M0.301,17.767c0,0.127,0.036,0.158,0.159,0.157c0.752-0.006,1.504-0.004,2.258-0.001c0.096,0.001,0.136-0.019,0.136-0.128
	c-0.002-4.225-0.002-8.448,0-12.672c0-0.104-0.032-0.131-0.133-0.13C1.973,4.996,1.224,4.995,0.476,4.995
	c-0.172,0-0.172,0-0.172,0.175c0,2.091,0,4.182,0,6.274C0.304,13.551,0.305,15.66,0.301,17.767z"/>
</svg>
