<?xml version="1.0" encoding="iso-8859-1"?>
<!-- Generator: Adobe Illustrator 16.0.0, SVG Export Plug-In . SVG Version: 6.00 Build 0)  -->
<!DOCTYPE svg PUBLIC "-//W3C//DTD SVG 1.1//EN" "http://www.w3.org/Graphics/SVG/1.1/DTD/svg11.dtd">
<svg version="1.1" id="&#x421;&#x43B;&#x43E;&#x439;_1"
	 xmlns="http://www.w3.org/2000/svg" xmlns:xlink="http://www.w3.org/1999/xlink" x="0px" y="0px" width="30.266px"
	 height="23.527px" viewBox="0 0 30.266 23.527" style="enable-background:new 0 0 30.266 23.527;" xml:space="preserve">
<path style="fill:white;" d="M30.266,0v23.527c-4.566-2.678-9.098-5.335-13.663-8.012c2.164-1.269,4.293-2.518,6.468-3.792
	c0.005,0.135,0.012,0.228,0.012,0.32c0,0.953,0.005,1.907-0.004,2.859c-0.003,0.19,0.052,0.3,0.225,0.399
	c0.948,0.545,1.888,1.103,2.831,1.656c0.074,0.043,0.155,0.08,0.254,0.133V6.463c-0.01-0.004-0.018-0.009-0.026-0.011
	c-0.008-0.001-0.018-0.004-0.025-0.001c-0.017,0.005-0.034,0.011-0.05,0.02c-3.711,2.175-7.421,4.35-11.153,6.537
	C11.401,10.819,7.69,8.645,3.979,6.47C3.964,6.461,3.947,6.455,3.93,6.45c-0.008-0.002-0.018,0-0.026,0.001
	C3.896,6.454,3.888,6.458,3.877,6.463v10.628c0.101-0.053,0.18-0.09,0.255-0.133c0.943-0.554,1.883-1.111,2.831-1.656
	c0.172-0.1,0.227-0.209,0.225-0.399c-0.009-0.952-0.004-1.906-0.004-2.859c0-0.092,0.007-0.185,0.012-0.32
	c2.174,1.274,4.305,2.523,6.468,3.792C9.098,18.192,4.566,20.849,0,23.527V0c0.122,0.067,0.215,0.115,0.304,0.167
	C4.487,2.618,8.668,5.07,12.85,7.522c0.704,0.412,1.409,0.822,2.108,1.241c0.063,0.037,0.119,0.058,0.174,0.059
	c0.056-0.001,0.111-0.022,0.175-0.059c0.699-0.418,1.405-0.829,2.107-1.241c4.183-2.452,8.364-4.904,12.547-7.355
	C30.051,0.115,30.144,0.067,30.266,0z"/>
</svg>
