<svg xmlns="http://www.w3.org/2000/svg" width="74" height="11.188" viewBox="0 0 74 11.188">
  <defs>
    <style>
      .cls-1 {
        fill: #f5f5f5;
        fill-rule: evenodd;
      }
    </style>
  </defs>
  <path id="logo" class="cls-1" d="M1352.58,524.163a9.286,9.286,0,0,0-1.17-.622,9.421,9.421,0,0,1-1.65-.95,0.98,0.98,0,0,1-.22-1.1,0.682,0.682,0,0,1,.7-0.388,0.742,0.742,0,0,1,.74.653v0.863h2.65l-0.01-1.271s0.2-2.082-3.12-2.174c0,0-2.61-.173-3.36,1.245a2.256,2.256,0,0,0-.29,1.419v0.8a2.672,2.672,0,0,0,.43,1.51,3.381,3.381,0,0,0,.91.817s1.32,0.714,2.11,1.123a1.334,1.334,0,0,1,.69,1.189,0.778,0.778,0,0,1-.83.719,0.742,0.742,0,0,1-.71-0.767V526.36h-2.82v1.254s-0.08,2.4,3.55,2.4c0,0,3.46.071,3.62-2.459V526.53a2.655,2.655,0,0,0-1.22-2.367h0Zm-13.56-4.693-0.88,5.6h-0.21l-0.85-5.549h-4.42l-0.22,10.14h2.62l0.03-7.64h0.2l1.39,7.639h2.76l1.37-7.636h0.18l0.06,7.637h2.64l-0.29-10.19h-4.38Zm-15.59.043-1.74,10.136h2.82l1.03-7.859h0.23l1.03,7.859h2.82l-1.74-10.136h-4.45Zm59.16,4.51v1.5h0.72v1.605a0.711,0.711,0,0,1-.66.8,0.718,0.718,0,0,1-.78-0.746v-5.552a0.707,0.707,0,0,1,.72-0.6,0.67,0.67,0,0,1,.69.682v0.844h2.66a3.492,3.492,0,0,0-.24-2.047c-0.66-1.49-3.15-1.408-3.15-1.408-3.83,0-3.41,2.959-3.41,2.959v5.368c0.09,2.776,3.86,2.494,3.92,2.492a3.716,3.716,0,0,0,2.19-.725,1.657,1.657,0,0,0,.58-0.832,4.66,4.66,0,0,0,.17-1.179v-3.154h-3.41Zm-8.8,1.65h-0.11l-2.7-6.2h-3.22v10.188h2.62l-0.15-6.2h0.11l2.79,6.2h3.13V519.472h-2.66l0.19,6.2h0Zm-12.43,1.45a0.772,0.772,0,1,1-1.54.021l-0.01-7.665h-2.88v7.6s-0.29,2.877,3.74,2.877c0,0,3.5.042,3.5-2.745V519.48h-2.81v7.643h0Zm-43.41-2.96a9.286,9.286,0,0,0-1.17-.622,9.356,9.356,0,0,1-1.65-.95,0.964,0.964,0,0,1-.22-1.1,0.682,0.682,0,0,1,.7-0.387,0.741,0.741,0,0,1,.74.652v0.863H1319l-0.01-1.271s0.2-2.082-3.12-2.174a5.958,5.958,0,0,0-.62,0s-2.01.109-2.73,1.221c0,0.008-.01.014-0.01,0.022a2.251,2.251,0,0,0-.29,1.418v0.8a2.589,2.589,0,0,0,.43,1.511,3.39,3.39,0,0,0,.91.816s1.32,0.715,2.11,1.124a1.333,1.333,0,0,1,.69,1.189,0.778,0.778,0,0,1-.83.719,0.742,0.742,0,0,1-.71-0.767V526.36H1312v1.255s-0.08,2.4,3.55,2.4c0,0,3.46.071,3.62-2.459v-1.02a2.684,2.684,0,0,0-1.22-2.369h0Z" transform="translate(-1312 -519)"/>
</svg>
