<?xml version="1.0" encoding="iso-8859-1"?>
<!-- Generator: Adobe Illustrator 16.0.0, SVG Export Plug-In . SVG Version: 6.00 Build 0)  -->
<!DOCTYPE svg PUBLIC "-//W3C//DTD SVG 1.1//EN" "http://www.w3.org/Graphics/SVG/1.1/DTD/svg11.dtd">
<svg version="1.1" id="&#x421;&#x43B;&#x43E;&#x439;_1"
	 xmlns="http://www.w3.org/2000/svg" xmlns:xlink="http://www.w3.org/1999/xlink" x="0px" y="0px" width="33.602px"
	 height="18.176px" viewBox="0 0 33.602 18.176" style="enable-background:new 0 0 33.602 18.176;" xml:space="preserve">
<path style="fill:white;" d="M16.563,10.021c-0.003,0.638-0.05,1.28-0.148,1.907c-0.511,3.223-2.458,5.349-5.38,5.957
	c-0.917,0.188-1.832,0.293-2.748,0.291c-0.915,0.002-1.831-0.103-2.747-0.291c-2.922-0.608-4.871-2.734-5.38-5.957
	c-0.1-0.627-0.147-1.271-0.15-1.907c-0.016-3.055-0.007-9.993-0.007-9.993h4.981c0,0-0.021,6.619,0,9.532
	c0.005,0.61-0.02,1.237,0.136,1.824c0.41,1.554,1.539,2.313,3.167,2.305c1.627,0.008,2.755-0.751,3.167-2.305
	c0.154-0.587,0.13-1.214,0.135-1.824c0.022-2.913,0-9.532,0-9.532h4.981C16.57,0.028,16.579,6.966,16.563,10.021z M23.529,12.641
	c0,1.826,0,3.471,0,5.159c-1.684,0-3.278,0-4.909,0c0-5.939,0-17.8,0-17.8s5.057,0,7.967,0c1.387,0.015,2.725,0.304,3.962,0.964
	c2.331,1.245,3.455,3.786,2.924,6.599c-0.543,2.876-2.822,4.824-6.046,5.063C26.162,12.72,24.886,12.641,23.529,12.641z
	 M23.561,8.813c1.029,0,1.779,0,2.904,0c1.218,0,2.208-1.173,2.208-2.501c0-1.108-0.978-2.216-2.208-2.216c-1.303,0-1.128,0-2.904,0
	C23.561,5.779,23.561,7.239,23.561,8.813z"/>
</svg>
