<?xml version="1.0" encoding="iso-8859-1"?>
<!-- Generator: Adobe Illustrator 16.0.0, SVG Export Plug-In . SVG Version: 6.00 Build 0)  -->
<!DOCTYPE svg PUBLIC "-//W3C//DTD SVG 1.1//EN" "http://www.w3.org/Graphics/SVG/1.1/DTD/svg11.dtd">
<svg version="1.1" id="&#x421;&#x43B;&#x43E;&#x439;_1"
	 xmlns="http://www.w3.org/2000/svg" xmlns:xlink="http://www.w3.org/1999/xlink" x="0px" y="0px" width="22.419px"
	 height="22.407px" viewBox="0 0 22.419 22.407" style="enable-background:new 0 0 22.419 22.407;" xml:space="preserve">
<path style="fill:white;" d="M0,0h10.665c-0.001,3.553,0,7.106-0.001,10.659c-3.554,0-7.109,0-10.664,0V0L0,0z M11.754,0h10.665
	c0,3.553,0,7.106,0,10.659c-3.554-0.001-7.109,0-10.664,0C11.753,7.106,11.754,3.553,11.754,0L11.754,0z M0,11.747
	c3.555,0.001,7.11-0.001,10.665,0.001c0.001,3.553,0,7.105,0,10.659H0V11.747L0,11.747z M11.755,11.748
	c3.554-0.001,7.109-0.001,10.664-0.001c0,3.554,0,7.106,0,10.66H11.754C11.755,18.853,11.753,15.3,11.755,11.748L11.755,11.748z"/>
</svg>
