<?xml version="1.0" encoding="iso-8859-1"?>
<!-- Generator: Adobe Illustrator 16.0.0, SVG Export Plug-In . SVG Version: 6.00 Build 0)  -->
<!DOCTYPE svg PUBLIC "-//W3C//DTD SVG 1.1//EN" "http://www.w3.org/Graphics/SVG/1.1/DTD/svg11.dtd">
<svg version="1.1" id="&#x421;&#x43B;&#x43E;&#x439;_1"
	 xmlns="http://www.w3.org/2000/svg" xmlns:xlink="http://www.w3.org/1999/xlink" x="0px" y="0px" width="35.29px"
	 height="22.406px" viewBox="0 0 35.29 22.406" style="enable-background:new 0 0 35.29 22.406;" xml:space="preserve">
<path style="fill:white;" d="M35.29,5.652C35.29,2.53,32.761,0,29.641,0c-3.119,0-5.649,2.53-5.649,5.652
	c0,3.841,5.649,6.513,5.649,6.513S35.29,9.601,35.29,5.652z M22.24,12.165c0,0-4.814,2.002-4.814,5.424
	c0,2.66,2.154,4.817,4.814,4.817c2.659,0,4.815-2.157,4.815-4.817C27.056,14.221,22.24,12.165,22.24,12.165 M19.36,6.952
	c0-2.404-1.949-4.354-4.352-4.354s-4.351,1.949-4.351,4.354c0,2.971,4.351,5.213,4.351,5.213S19.36,9.923,19.36,6.952z
	 M8.906,12.165c0,0-3.564,1.787-3.564,4.246c0,1.97,1.596,3.567,3.564,3.567c1.968,0,3.564-1.598,3.564-3.567
	C12.47,13.897,8.906,12.165,8.906,12.165 M6.026,8.29c0-1.666-1.35-3.016-3.014-3.016S0,6.625,0,8.29
	c0,2.117,3.013,3.875,3.013,3.875S6.026,10.298,6.026,8.29z"/>
</svg>
